<svg id="Layer_1" data-name="Layer 1" xmlns="http://www.w3.org/2000/svg" xmlns:xlink="http://www.w3.org/1999/xlink" viewBox="0 0 29.55 31"><defs><style>.cls-1{fill:none;}.cls-2{clip-path:url(#clip-path);}.cls-3{fill:#221f44;}</style><clipPath id="clip-path"><rect class="cls-1" width="29.55" height="31"/></clipPath></defs><g class="cls-2"><path class="cls-3" d="M17.89,11.5a.6.6,0,0,0-.58.61.58.58,0,1,0,1.16,0A.6.6,0,0,0,17.89,11.5Z"/><path class="cls-3" d="M28.87,26.87l-7.7-8.09a12.46,12.46,0,0,0,1.92-6.67C23.09,5.43,17.91,0,11.54,0S0,5.43,0,12.11,5.18,24.22,11.54,24.22a11,11,0,0,0,6.36-2L20,24.44h0l5.58,5.85a2.23,2.23,0,0,0,3.26,0,2.49,2.49,0,0,0,0-3.42ZM17.63,20.93h0A10,10,0,0,1,11.54,23,10.67,10.67,0,0,1,1.15,12.11,10.67,10.67,0,0,1,11.54,1.21a10.67,10.67,0,0,1,10.39,10.9,11.13,11.13,0,0,1-2,6.39A10.5,10.5,0,0,1,17.63,20.93Zm1.21.55a11.55,11.55,0,0,0,1.64-1.71l1.63,1.72a13.86,13.86,0,0,1-1.63,1.71Zm9.22,8a1.11,1.11,0,0,1-1.64,0L21.3,24.06a16.47,16.47,0,0,0,1.63-1.71l5.13,5.37a1.26,1.26,0,0,1,.33.86A1.24,1.24,0,0,1,28.06,29.43Z"/><path class="cls-3" d="M11.54,2.42a9.48,9.48,0,0,0-9.23,9.69,9.48,9.48,0,0,0,9.23,9.69,9.49,9.49,0,0,0,9.24-9.69A9.49,9.49,0,0,0,11.54,2.42Zm0,18.17a8.3,8.3,0,0,1-8.08-8.48,8.3,8.3,0,0,1,8.08-8.48,8.3,8.3,0,0,1,8.08,8.48A8.3,8.3,0,0,1,11.54,20.59Z"/><path class="cls-3" d="M18,9.51a7.17,7.17,0,0,0-2.5-3.35,6.66,6.66,0,0,0-4-1.32.61.61,0,0,0,0,1.21,5.83,5.83,0,0,1,5.39,3.89.57.57,0,0,0,.54.39.52.52,0,0,0,.21,0A.61.61,0,0,0,18,9.51Z"/></g></svg>